<?xml version="1.0" encoding="utf-8"?>
<!-- Generator: Adobe Illustrator 24.2.3, SVG Export Plug-In . SVG Version: 6.00 Build 0)  -->
<svg version="1.1" id="Layer_1" xmlns="http://www.w3.org/2000/svg" xmlns:xlink="http://www.w3.org/1999/xlink" x="0px" y="0px"
	 viewBox="0 0 512 512" style="enable-background:new 0 0 512 512;" xml:space="preserve">
<style type="text/css">
	.st0{fill:#C99E5E;}
	.st1{fill:#181615;}
	.st2{opacity:0.5;fill:#FFFFFF;}
	.st3{fill:#B47129;}
	.st4{opacity:0.25;}
	.st5{fill:#B2AEA9;}
	.st6{fill:#52504E;}
	.st7{fill:#8E7D6B;}
	.st8{fill:#F9F2E8;}
	.st9{fill:#231F15;}
</style>
<path class="st0" d="M284.14,452.38c-117.42,0-182.08-52.16-182.08-146.87c0-87.55,69.73-153.57,162.21-153.57
	c89.25,0,157.34,64.35,161.89,153.01c2.63,51.07-7.26,87.66-30.23,111.84C372.87,441.07,337.35,452.38,284.14,452.38z"/>
<path class="st1" d="M436.9,304.41c-4.86-94.57-77.46-163.21-172.63-163.21c-46.43,0-89.62,16.22-121.62,45.66
	c-33.1,30.46-51.33,72.6-51.33,118.65c0,49.61,16.53,88.62,49.13,115.96c32.97,27.64,81.32,41.66,143.7,41.66
	c56.35,0,94.34-12.37,119.57-38.93C428.83,397.76,439.68,358.58,436.9,304.41z M284.14,441.63c-117.93,0-171.34-52.32-171.34-136.12
	c0-83.81,67.89-142.82,151.46-142.82c83.57,0,146.86,59.12,151.16,142.82C420.99,413.74,367.71,441.63,284.14,441.63z"/>
<path class="st2" d="M415.43,305.51c-1.68-32.63-12.35-61.5-29.67-84.61c1.61,3.98,41.19,93.78,3.42,164.57
	c-22.2,41.61-90.63,55.61-90.63,55.61l0.74,0.22C374.07,437.87,420.65,407.05,415.43,305.51z"/>
<path class="st3" d="M306.34,500.28c-52.06,0-83.6-26.68-98.75-39.49c-1.56-1.32-3.38-2.86-4.67-3.86
	c-3.73,0.29-7.37,0.43-10.85,0.43c-59.35,0-69.77-41.13-73.69-56.61l-0.26-1.01c-0.44-1.74-4.3-4.68-7.7-7.27
	c-8.48-6.46-21.31-16.23-26.02-36.91c-2.51-11.01,1.54-22.71,5.45-34.03c2.94-8.49,5.98-17.28,6.1-25.13
	c0.67-42.09,11.81-78.52,32.22-105.35c25.27-33.23,63.95-52.08,114.97-56.03c8.74-0.68,17.32-1.02,25.51-1.02
	c54.58,0,96.85,14.9,125.63,44.28c38.75,39.55,38.15,90.57,38.1,92.72c-0.06,2.91-1.3,5.68-3.44,7.66c-1.99,1.85-4.6,2.86-7.31,2.86
	c-0.2,0-0.4-0.01-0.6-0.02c-0.37-0.02-37.03-2.02-85.17-2.02c-59,0-138.63,2.98-189.95,16.83c-1.89,19.95-0.99,51.82,17.13,80.09
	c9.4,14.67,26.23,25.28,46.18,29.1c1.27,0.24,2.74,0.37,4.38,0.37c11.38,0,27.05-5.77,35.47-8.87c2.45-0.9,4.39-1.62,5.95-2.11
	c29.29-9.26,59.69-11.2,80.04-11.2c31.02,0,58.47,4.42,73.43,11.82c4.22,2.08,7.18,6.15,8.82,12.08
	c3.35,12.11,1.78,34.69-5.27,45.65c-7.86,12.22-32.55,41.22-91.93,46.46C315.5,500.07,310.86,500.28,306.34,500.28z"/>
<path class="st1" d="M401.95,170.74c-30.88-31.52-75.72-47.5-133.28-47.5c0,0,0,0,0,0c-8.47,0-17.32,0.35-26.33,1.05
	c-98.22,7.6-155.48,70.27-157.1,171.93c-0.1,6.14-2.85,14.09-5.51,21.79c-4.2,12.15-8.97,25.93-5.78,39.94
	c5.58,24.48,20.86,36.12,29.98,43.07c1.41,1.07,3.22,2.45,4.31,3.41c4.33,16.97,17.54,63.67,83.84,63.67c2.37,0,4.81-0.06,7.3-0.18
	c0.43,0.37,0.86,0.73,1.27,1.08c14.87,12.58,49.69,42.04,105.69,42.04c4.84,0,9.79-0.22,14.73-0.66
	c64.12-5.66,91.31-37.8,100.03-51.35c8.91-13.85,10.62-39.75,6.58-54.33c-3.1-11.21-9.55-16.44-14.41-18.84
	c-16.37-8.1-45.6-12.93-78.2-12.93c-21.11,0-52.69,2.03-83.28,11.7c-1.8,0.57-3.84,1.32-6.42,2.27c-7.79,2.87-22.29,8.21-31.75,8.21
	c-1.26,0-2.02-0.11-2.36-0.17c-17.06-3.27-31.33-12.14-39.15-24.34c-14.35-22.4-16.77-47.53-15.99-65.78
	c40.27-9.56,101.9-14.59,179.77-14.59c47.89,0,84.21,1.99,84.57,2.01c0.4,0.02,0.8,0.03,1.19,0.03c5.4,0,10.63-2.04,14.61-5.73
	c4.28-3.96,6.76-9.5,6.88-15.33C443.19,268.86,443.83,213.48,401.95,170.74z M421.65,270.76c0,0-36.73-2.04-85.76-2.04
	c-63.63,0-147.99,3.43-199.79,19.22c-2.29,16.28-5.73,57.35,17.92,94.25c11.15,17.4,30.76,29.56,53.2,33.86
	c2.01,0.38,4.16,0.56,6.4,0.56c16.5,0,37.87-9.34,44.65-11.48c23.99-7.58,51.62-10.7,76.8-10.7c29.54,0,55.71,4.29,68.66,10.7
	c6.5,3.22,5.73,32.25-0.72,42.28c-11.53,17.93-37.78,37.5-83.84,41.56c-4.42,0.39-8.7,0.57-12.84,0.57
	c-63.84,0-94.5-43.57-101.31-43.57c-0.05,0-0.09,0-0.14,0.01c-4.54,0.43-8.81,0.64-12.81,0.64c-52.16,0-59.76-34.75-63.53-49.53
	c-3.39-13.29-27.2-15.6-33.65-43.91c-3.44-15.09,11.5-36.19,11.82-56.61c1.13-70.99,33.18-142.78,137.27-150.84
	c8.64-0.67,16.86-0.99,24.68-0.99C424.25,144.73,421.65,270.76,421.65,270.76z"/>
<path class="st4" d="M243.98,145.72c-104.09,8.06-136.13,79.85-137.27,150.84c-0.33,20.42-15.26,41.52-11.82,56.61
	c6.45,28.3,30.26,30.61,33.65,43.91c4.06,15.91,12.57,54.98,76.34,48.89c6.77-0.65,39.63,47.1,109.25,43.33
	c-0.99-0.37-65.54-22.9-75.21-77.42v0c-10.35,3.22-22.48,5.95-31.71,4.18c-22.44-4.3-42.05-16.46-53.2-33.86
	c-23.65-36.9-20.2-77.97-17.92-94.25c91.72-27.95,285.55-17.18,285.55-17.18S424.52,131.75,243.98,145.72z"/>
<path class="st5" d="M396.62,201.07c-2.45-0.06-24.15-1.08-32.6-16.68c-9.94-18.36-4.07-34.62,0.97-41.34
	c1.62-2.17,4.01-3.64,6.68-4.13c0.54-0.1,53.66-9.81,74.4-20.15c22.95-11.45,24.86-43.29,24.87-43.61c0.25-4.85,3.72-8.92,8.46-9.95
	c0.76-0.16,1.52-0.24,2.28-0.24c3.95,0,7.67,2.19,9.54,5.8c10.41,20.09,20.94,65.11-13.75,91.71
	c-20.18,15.47-74.32,36.92-76.62,37.83c-1.26,0.5-2.59,0.75-3.94,0.75C396.81,201.07,396.72,201.07,396.62,201.07z"/>
<path class="st1" d="M500.76,65.83c-3.76-7.27-11.24-11.74-19.16-11.74c-1.53,0-3.07,0.17-4.61,0.51
	c-9.5,2.12-16.37,10.22-16.78,19.94c-0.12,1.49-2.34,26.34-18.94,34.62c-14.3,7.13-51.45,15.56-71.51,19.19
	c-5.34,0.97-10.11,3.91-13.36,8.25c-6.58,8.76-14.35,29.77-1.82,52.91c11.09,20.48,36.74,22.17,41.77,22.3
	c0.19,0.01,0.38,0.01,0.56,0.01c2.7,0,5.38-0.51,7.89-1.5c5.9-2.33,58.21-23.19,79.21-39.3C524.35,140.08,512.61,88.69,500.76,65.83
	z M470.93,153.96c-19.22,14.74-74.02,36.36-74.02,36.36s-17.69-0.46-23.43-11.05c-9.32-17.2,0.11-29.76,0.11-29.76
	s54.91-9.95,77.27-21.11c28.83-14.38,30.81-52.67,30.81-52.67S507.63,125.81,470.93,153.96z"/>
<path class="st4" d="M485.62,136.14c-0.1,0.02-22.45,4.54-41.85-4.64c-25.11,9.83-70.18,18-70.18,18s-9.43,12.57-0.11,29.76
	c5.74,10.59,23.43,11.05,23.43,11.05s54.8-21.62,74.02-36.36C477.86,148.64,482.56,142.54,485.62,136.14z"/>
<path class="st6" d="M82,286.17c-2.71,0-5.36-1.03-7.37-2.92c-2.56-2.41-3.78-5.91-3.27-9.39c0.31-2.09,0.56-5.68,0.85-9.84
	C75.25,220.47,84.5,87.96,256.39,76.92c5.24-0.34,10.47-0.51,15.54-0.51c85.85,0,129.58,48.34,151.15,88.89
	c22.95,43.15,25.89,85.76,26,87.56c0.2,3.17-1.01,6.26-3.3,8.45c-2.01,1.92-4.68,2.98-7.43,2.98c-0.39,0-0.78-0.02-1.17-0.06
	c-0.37-0.04-37.44-4.03-95.67-4.03c-61.11,0-155.35,4.47-257.31,25.74C83.46,286.09,82.73,286.17,82,286.17z"/>
<path class="st1" d="M459.8,252.18c-0.12-1.89-3.21-46.75-27.24-91.92c-22.95-43.15-69.45-94.59-160.64-94.59
	c-5.29,0-10.75,0.18-16.22,0.53c-76.8,4.93-131.94,34.1-163.89,86.69c-25.56,42.08-28.78,88.21-30.33,110.38
	c-0.26,3.78-0.51,7.35-0.76,9.03c-1.02,6.95,1.42,13.96,6.53,18.77c4.03,3.79,9.31,5.85,14.74,5.85c1.46,0,2.93-0.15,4.39-0.45
	c101.06-21.09,194.51-25.51,255.12-25.51c57.53,0,94.14,3.92,94.51,3.96c0.78,0.09,1.56,0.13,2.33,0.13c5.5,0,10.83-2.11,14.85-5.95
	C457.79,264.7,460.21,258.52,459.8,252.18z M341.5,249.45c-65.82,0-158.95,4.98-259.51,25.97c3.82-26.04-4.63-176.24,175.08-187.77
	c5.08-0.33,10.04-0.48,14.85-0.48c155.85,0,166.42,166.38,166.42,166.38S401.13,249.45,341.5,249.45z"/>
<path class="st2" d="M291.71,88.13c113.81,33.49,116.52,163.13,116.52,163.13l0,0c19.29,1.1,30.12,2.28,30.12,2.28
	S428.66,101.56,291.71,88.13z"/>
<path class="st4" d="M257.08,87.65C77.37,99.18,85.82,249.38,82,275.42c36.05-7.52,71.14-12.99,104.37-16.9
	C187.65,211.72,198.15,122.48,257.08,87.65z"/>
<path class="st7" d="M82.48,302.57c-2.35,0-4.66-0.77-6.56-2.23c-2.51-1.94-4.04-4.89-4.18-8.06c-0.22-5.16-0.36-9.56-0.49-13.91
	c-0.26-8.51-0.51-16.54-1.38-29.63c-0.35-5.3,3.22-10.06,8.4-11.21c75.07-16.59,152.57-25.01,230.34-25.01
	c80.61,0,131.08,9.12,133.19,9.51c4.93,0.91,8.58,5.1,8.79,10.11l1.88,43.79c0.14,3.29-1.23,6.45-3.72,8.6
	c-1.97,1.7-4.47,2.61-7.02,2.61c-0.68,0-1.36-0.06-2.04-0.2c-0.48-0.09-49.62-9.37-127.99-9.37c-75.59,0-151.94,8.32-226.95,24.74
	C84.02,302.49,83.25,302.57,82.48,302.57z"/>
<path class="st1" d="M461.35,231.69c-0.43-10.01-7.73-18.4-17.59-20.22c-2.15-0.4-53.56-9.69-135.13-9.69v21.5l0-21.5
	c-78.56,0-156.84,8.5-232.67,25.26c-10.37,2.29-17.51,11.82-16.81,22.42c0.86,12.89,1.1,20.83,1.36,29.24
	c0.13,4.33,0.27,8.8,0.49,14.04c0.27,6.34,3.33,12.24,8.36,16.11c3.79,2.92,8.41,4.47,13.12,4.47c1.53,0,3.07-0.16,4.6-0.5
	c74.26-16.25,149.84-24.49,224.65-24.49c77.14,0,125.48,9.09,125.96,9.18c1.34,0.26,2.7,0.38,4.05,0.38
	c5.12,0,10.12-1.83,14.05-5.22c4.97-4.3,7.72-10.63,7.44-17.19L461.35,231.69z M311.73,266.83c-61.21,0-140.33,5.53-229.25,24.99
	c-0.65-15.15-0.55-23.76-1.88-43.79c87.26-19.29,166.39-24.76,228.02-24.76c80.56,0,131.25,9.33,131.25,9.33l1.88,43.79
	C441.75,276.4,392.24,266.83,311.73,266.83z"/>
<path class="st5" d="M111.79,193.88c-1.28,0-2.02-0.07-2.02-0.07c-0.93-0.09-1.98-0.31-2.85-0.63c-5.88-2.17-58.03-21.72-77.3-38.29
	c-30.06-25.83-15.84-82.77-14.12-89.17c1.26-4.71,5.53-7.96,10.38-7.96c0.1,0,0.2,0,0.31,0c4.97,0.14,9.2,3.68,10.22,8.55
	c1.98,9.39,10.88,37.91,25.22,45.31c17.02,8.79,55.1,16.69,68.34,18.99c2.04,0.35,3.93,1.29,5.45,2.69
	c5.97,5.51,14.13,20.25,6.88,40.58C137.02,188.62,123.08,193.88,111.79,193.88z"/>
<path class="st1" d="M142.7,125.4c-3.04-2.81-6.82-4.68-10.9-5.39c-12.8-2.23-49.48-9.81-65.25-17.95
	C58.1,97.7,49.58,76.85,46.92,64.11c-2.03-9.74-10.49-16.82-20.44-17.1C26.28,47,26.07,47,25.87,47c-9.7,0-18.23,6.51-20.76,15.92
	c-1.9,7.07-17.54,69.99,17.5,100.11c20.27,17.42,70.68,36.56,80.58,40.22c1.83,0.68,3.75,1.1,5.7,1.26c0.48,0.04,1.5,0.11,2.9,0.11
	c14.95,0,33.47-7.13,40.61-27.14C161.54,151.88,150.6,132.7,142.7,125.4z M132.16,170.26c-4.25,11.91-16.54,12.86-20.36,12.86
	c-0.73,0-1.15-0.03-1.15-0.03s-55.66-20.57-74.02-36.36C10.83,124.56,25.87,68.5,25.87,68.5s8.6,41.2,30.81,52.67
	s71.43,20.03,71.43,20.03S138.96,151.2,132.16,170.26z"/>
<path class="st5" d="M328.9,289.45c-36.16,0-41.13-5.48-43.52-8.11c-5.77-6.36-8-16.54-8.84-22.65
	c-8.14-7.62-26.9-27.75-26.08-50.67c1.01-28.19,25.88-58.16,69.99-58.16c2.42,0,4.92,0.09,7.4,0.28
	c40.76,3.02,71.81,25.8,75.52,55.4c2.81,22.42-14.03,41.88-21.91,49.64c-0.27,7.55-1.76,19.78-8.16,26.42
	C371.04,283.95,365.75,289.45,328.9,289.45z"/>
<path class="st1" d="M414.04,204.2c-2.18-17.39-12.25-33.46-28.36-45.25c-15.24-11.15-34.96-17.9-57.03-19.54
	c-2.75-0.2-5.51-0.31-8.19-0.31v21.5l0-21.5c0,0-0.01,0-0.01,0c-29.17,0-47.84,11.67-58.37,21.45
	c-13.6,12.64-21.75,29.79-22.37,47.07c-0.88,24.77,16.67,46.09,26.78,56.26c1.41,7.52,4.44,17.51,10.93,24.66
	c5.34,5.89,13.71,11.64,51.48,11.64c9.45,0,18.68-0.46,25.99-1.29c11.24-1.28,19.99-3.45,26.16-9.85
	c7.51-7.8,10.16-19.54,10.94-29.23C401.84,249.35,417.12,228.76,414.04,204.2z M370.74,250.45c0,0,0.53,17.77-5.18,23.69
	c-2.89,3-19.85,4.55-36.66,4.55c-16.45,0-32.75-1.49-35.55-4.58c-5.67-6.25-6.55-20.69-6.55-20.69s-26.42-21.94-25.6-45.03
	c0.78-21.86,20.85-47.79,59.25-47.79c2.15,0,4.35,0.08,6.61,0.25c37.82,2.8,62.77,23.06,65.65,46.02
	C395.59,229.84,370.74,250.45,370.74,250.45z"/>
<path class="st1" d="M307.89,283.11c-2.68,0-5.01-2.01-5.33-4.74l-2.21-18.62c-0.35-2.95,1.75-5.62,4.7-5.97
	c2.95-0.37,5.62,1.76,5.97,4.7l2.21,18.62c0.35,2.95-1.75,5.62-4.7,5.97C308.32,283.1,308.1,283.11,307.89,283.11z"/>
<path class="st1" d="M330.73,284.06c-2.97,0-5.37-2.41-5.37-5.37v-19.57c0-2.97,2.41-5.37,5.37-5.37c2.97,0,5.37,2.41,5.37,5.37
	v19.57C336.1,281.66,333.69,284.06,330.73,284.06z"/>
<path class="st1" d="M350.68,283.11c-0.17,0-0.34-0.01-0.51-0.02c-2.96-0.28-5.12-2.9-4.84-5.86l1.92-20.18
	c0.28-2.95,2.93-5.12,5.86-4.84c2.96,0.28,5.12,2.9,4.84,5.86l-1.92,20.18C355.76,281.02,353.42,283.11,350.68,283.11z"/>
<path class="st4" d="M206.95,228.16c-39.15,3.75-81.68,10-126.35,19.87c1.33,20.03,1.23,28.64,1.88,43.79
	c44.06-9.64,85.71-15.86,123.97-19.68C205.55,258.63,205.25,242.63,206.95,228.16z"/>
<path d="M319.21,209.33c1.33,8.65-11.78,21.93-19.74,23.15c-7.96,1.22-15.5-4.8-16.83-13.45c-1.33-8.65,4.05-16.66,12.01-17.89
	C302.61,199.92,317.88,200.67,319.21,209.33z"/>
<path d="M338.85,209.33c-1.33,8.65,11.78,21.93,19.74,23.15c7.96,1.22,15.49-4.8,16.83-13.45c1.33-8.65-4.05-16.66-12.01-17.89
	C355.45,199.92,340.18,200.67,338.85,209.33z"/>
<path d="M340.4,235.31c0,3.95-4.33,7.15-9.67,7.15c-5.34,0-9.67-3.2-9.67-7.15c0-3.95,4.33-7.15,9.67-7.15
	C336.07,228.16,340.4,231.36,340.4,235.31z"/>
<path d="M122.13,347.64c1.89,6.04,0.14,11.97-3.92,13.25c-4.06,1.27-8.89-2.59-10.78-8.64c-1.89-6.04-0.14-11.97,3.92-13.24
	C115.41,337.73,120.24,341.6,122.13,347.64z"/>
<path d="M153.2,410.55c1.63,3.39,0.99,7.08-1.42,8.24c-2.41,1.15-5.68-0.66-7.31-4.05c-1.63-3.39-0.99-7.08,1.42-8.24
	C148.3,405.34,151.57,407.15,153.2,410.55z"/>
<path d="M281.31,457.38c4.97,5.05,5.95,12.13,2.21,15.82c-3.74,3.68-10.81,2.57-15.77-2.48c-4.97-5.05-5.95-12.13-2.2-15.82
	C269.29,451.22,276.35,452.33,281.31,457.38z"/>
<path d="M253.4,431.9c2.07,4.43,0.86,9.37-2.71,11.04c-3.57,1.67-8.14-0.57-10.21-4.99c-2.07-4.43-0.86-9.37,2.71-11.04
	C246.75,425.24,251.32,427.48,253.4,431.9z"/>
<path class="st2" d="M403.73,405.12c-19.66-9.73-69.71-14.57-115.82-6.95c61.99,0.95,91.28,8.74,106.33,17.61
	c1.92,6.73,0.43,21.18-1.88,27.72c-7.26,20.54-39.02,38.34-40.63,39.24c26.37-8.15,42.82-22.18,51.29-35.34
	C409.47,437.36,410.24,408.34,403.73,405.12z"/>
<path class="st2" d="M392.71,206.88c-2.88-22.96-27.82-43.22-65.65-46.02c-2.65-0.2-5.22-0.27-7.72-0.24
	c82.23,16.66,56.27,85.19,56.27,85.19l0,0C382.7,238.45,394.76,223.27,392.71,206.88z"/>
<path class="st4" d="M56.69,121.16C34.47,109.7,25.87,68.5,25.87,68.5s-15.05,56.06,10.75,78.24
	c18.37,15.79,74.02,36.36,74.02,36.36s6.26,0.5,12.24-2.43C122.72,180.59,68.01,156.42,56.69,121.16z"/>
<path class="st8" d="M347.9,316.3c0,17.95,7.94,33.35,19.25,39.93c8.21,0.81,19.98,0.01,29-3.2c8.89-7.67,14.79-21.25,14.79-36.73
	c0-13.31-4.36-25.21-11.23-33.16c-11.94-3.64-32.12-1.65-43.82,4.31C350.93,295.12,347.9,305.23,347.9,316.3z"/>
<path class="st1" d="M373.52,367.27L373.52,367.27c-2.6,0-5.1-0.12-7.42-0.34c-1.54-0.15-3.02-0.63-4.35-1.41
	c-14.94-8.69-24.6-28.01-24.6-49.22c0-12.71,3.46-25.04,9.73-34.7c1.03-1.58,2.45-2.87,4.14-3.72c8.98-4.57,21.8-7.3,34.3-7.3
	c6.64,0,12.53,0.77,17.52,2.29c1.94,0.59,3.67,1.72,5,3.26c8.8,10.18,13.84,24.83,13.84,40.18c0,18.09-6.92,34.87-18.52,44.87
	c-1.01,0.87-2.17,1.54-3.42,1.99C389.7,366.74,379.01,367.27,373.52,367.27z M370.71,345.71c0.9,0.04,1.84,0.06,2.81,0.06h0
	c6.01,0,12.21-0.82,17.04-2.23c5.98-6.12,9.63-16.34,9.63-27.24c0-8.97-2.4-17.38-6.65-23.58c-2.4-0.42-5.22-0.65-8.22-0.65
	c-7.76,0-15.99,1.45-21.91,3.78c-3.09,5.83-4.77,12.97-4.77,20.45C358.65,328.76,363.42,340.23,370.71,345.71z"/>
<path class="st8" d="M191.34,314.62c0,15.13,6.58,28.7,17,37.99c8.88,7.91,31.05,9.9,55.27,7.65c12.23-1.79,28.4-22.26,28.4-45.64
	c0-12.89-4.77-24.65-12.64-33.6c-17.55-7.66-48.07-10.33-65.85-8.44C200.15,281.69,191.34,297.12,191.34,314.62z"/>
<path class="st1" d="M245.82,371.88C245.82,371.88,245.82,371.88,245.82,371.88c-21.24,0-36.26-3.78-44.63-11.24
	c-13.09-11.67-20.6-28.44-20.6-46.02c0-20.43,10.06-39.47,26.9-50.93c1.46-1,3.15-1.62,4.91-1.8c4.01-0.43,8.54-0.64,13.45-0.64
	c16.19,0,41.05,2.6,57.83,9.92c1.44,0.63,2.73,1.57,3.77,2.76c9.88,11.23,15.31,25.69,15.31,40.69c0,29.05-19.85,53.67-37.59,56.27
	c-0.19,0.03-0.38,0.05-0.56,0.07C258.09,371.57,251.77,371.88,245.82,371.88z M217.45,283.02c-9.67,7.55-15.36,19.18-15.36,31.6
	c0,11.45,4.88,22.38,13.4,29.97c3.14,2.8,12.76,5.79,30.32,5.79c0,0,0,0,0,0c5.17,0,10.7-0.26,16.43-0.79
	c5.66-1.12,19.02-15.83,19.02-34.97c0-8.98-2.98-17.65-8.44-24.66c-11.42-4.35-29.84-7.21-46.97-7.21
	C222.83,282.75,220.02,282.84,217.45,283.02z"/>
<path class="st9" d="M375.75,320.58c0,9.6,4.16,15.72,10.73,15.72c6.57,0,11.89-7.78,11.89-17.38c0-9.6-5.32-17.38-11.89-17.38
	C379.91,301.54,375.75,310.98,375.75,320.58z"/>
<path class="st9" d="M242.3,317.78c-0.78,13.26,8.07,21.09,18.03,21.09s18.02-9.44,18.02-21.09c0-11.65-10.48-20.88-20.44-20.88
	C247.96,296.9,242.98,306.15,242.3,317.78z"/>
<path class="st4" d="M363.42,295.85c5.92-2.33,14.15-3.78,21.91-3.78c3,0,5.81,0.22,8.21,0.65c4.21,6.13,6.59,14.41,6.64,23.26
	c-16.52,0.33-30.47,1.19-41.49,2.14c-0.02-0.6-0.04-1.21-0.04-1.81C358.65,308.82,360.33,301.68,363.42,295.85z"/>
<path class="st4" d="M217.45,283.02c2.57-0.18,5.38-0.28,8.4-0.28c17.13,0,35.56,2.86,46.98,7.21c5.46,7.01,8.44,15.68,8.44,24.66
	c0,1.31-0.07,2.59-0.19,3.85c-26.46-7.86-58.26-8.57-78.93-5.92C202.75,300.92,208.33,290.16,217.45,283.02z"/>
<path class="st3" d="M292.03,304.62c-0.68,0-1.37-0.07-2.07-0.2l-111.98-21.87c-2.83-0.55-5.32-2.22-6.91-4.63
	c-1.59-2.41-2.14-5.36-1.53-8.18l6.45-29.96c0.64-3,2.54-5.58,5.21-7.09c1.63-0.92,3.46-1.39,5.29-1.39c1.17,0,2.34,0.19,3.47,0.58
	L298.79,269c5.19,1.77,8.22,7.17,7.02,12.53l-3.3,14.7C301.39,301.21,296.97,304.62,292.03,304.62z"/>
<path class="st1" d="M302.26,258.83L193.44,221.7c-2.26-0.77-4.61-1.15-6.94-1.15c-3.67,0-7.32,0.94-10.59,2.79
	c-5.34,3.02-9.14,8.19-10.43,14.18l-6.45,29.96c-1.21,5.64-0.11,11.54,3.07,16.36c3.18,4.82,8.16,8.16,13.83,9.26l111.98,21.87
	c1.39,0.27,2.78,0.4,4.14,0.4c9.86,0,18.72-6.82,20.96-16.8l3.3-14.7C318.7,273.17,312.65,262.37,302.26,258.83z M292.02,293.87
	L180.05,272l6.45-29.96l108.83,37.13L292.02,293.87z"/>
<path class="st3" d="M341.8,304.62c-1.78,0-3.56-0.44-5.16-1.32c-2.6-1.42-4.5-3.86-5.25-6.73l-3.25-12.55
	c-1.25-4.83,0.98-9.88,5.39-12.2l66.28-34.98c1.57-0.83,3.29-1.24,5.02-1.24c1.66,0,3.32,0.39,4.85,1.16c3.11,1.57,5.26,4.55,5.78,8
	l3.85,25.66c0.78,5.19-2.3,10.18-7.29,11.81l-66.88,21.87C344.05,304.44,342.92,304.62,341.8,304.62z"/>
<path class="st1" d="M429.93,268.81l-3.85-25.66c-1.04-6.89-5.34-12.85-11.56-15.99c-3.05-1.54-6.38-2.31-9.7-2.31
	c-3.45,0-6.9,0.83-10.03,2.49l-66.28,34.98c-8.82,4.65-13.28,14.76-10.77,24.41l3.25,12.55c1.49,5.74,5.29,10.62,10.49,13.46
	c3.2,1.75,6.75,2.64,10.32,2.64c2.25,0,4.5-0.35,6.68-1.07l66.88-21.87C425.33,289.17,431.49,279.18,429.93,268.81z M341.8,293.87
	l-3.25-12.55l66.28-34.98l3.85,25.66L341.8,293.87z"/>
<polygon class="st4" points="229.89,256.85 186.5,242.04 180.05,272 249.61,285.59 "/>
<polygon class="st4" points="369.38,265.04 338.54,281.32 341.8,293.87 385.83,279.47 "/>
</svg>
