<?xml version="1.0" encoding="utf-8"?>
<!-- Generator: Adobe Illustrator 25.0.1, SVG Export Plug-In . SVG Version: 6.00 Build 0)  -->
<svg version="1.1" id="Layer_1" xmlns="http://www.w3.org/2000/svg" xmlns:xlink="http://www.w3.org/1999/xlink" x="0px" y="0px"
	 viewBox="0 0 512 512" style="enable-background:new 0 0 512 512;" xml:space="preserve">
<style type="text/css">
	.st0{fill:#613517;}
	.st1{fill:#181615;}
	.st2{fill:#321D0F;}
</style>
<path class="st0" d="M376.35,335.29c-19.38,0-34.8-2.92-35.44-3.05c-8.82-1.7-14.99-8.41-14.71-16.02
	c0.24-6.79,2.56-66.94,8.84-85.75c4.84-14.54,20.86-23.93,40.8-23.93c19.49,0,36.66,8.83,42.72,21.96
	c7.25,15.7,7.16,42.19,7.04,75.71c-0.01,3.93-0.03,7.91-0.03,11.91c0,7.12-5.6,13.37-13.73,15.33
	C401.25,333.99,389.32,335.29,376.35,335.29z"/>
<path class="st1" d="M436.2,222.72c-8.87-19.22-33.13-32.13-60.37-32.13h0c-28.67,0-51.85,13.96-59.04,35.57
	c-6.57,19.7-8.95,73.54-9.53,89.57c-0.55,15.23,11.78,28.65,29.42,32.05c1.84,0.36,18.53,3.45,39.67,3.45
	c14.73,0,28.43-1.5,40.69-4.45c16.26-3.92,27.47-16.43,27.47-30.66c0-3.99,0.01-7.95,0.03-11.86
	C444.66,265.18,444.33,240.34,436.2,222.72z M406.62,316.12c-10.11,2.44-20.74,3.22-30.27,3.22c-17.47,0-31.22-2.65-31.22-2.65
	s2.31-64.44,8.14-81.93c2.83-8.49,12.54-12.29,22.56-12.29c10.62,0,21.59,4.28,25.06,11.79
	C407.62,248.86,406.62,281.62,406.62,316.12z"/>
<path class="st2" d="M406.67,294.93c-0.01,6.89-0.05,13.99-0.05,21.18c-28.64,6.9-61.49,0.58-61.49,0.58s0.33-9.33,1.07-21.84
	C362.87,295.92,384.03,296.44,406.67,294.93z"/>
<path class="st0" d="M133.84,335.29c-18.79,0-33.75-2.96-34.38-3.08c-8.73-1.75-14.81-8.42-14.55-15.97
	c0.24-6.79,2.46-66.86,8.47-85.62c4.69-14.63,20.38-24.08,39.97-24.08c19.14,0,35.95,8.91,41.83,22.16
	c6.92,15.61,6.84,42.04,6.73,75.5c-0.01,3.94-0.03,7.92-0.03,11.93c0,7.05-5.51,13.27-13.54,15.28
	C158.04,333.98,146.44,335.29,133.84,335.29z"/>
<path class="st1" d="M192.91,223.11c-8.62-19.45-32.56-32.52-59.57-32.52c0,0,0,0,0,0c-27.98,0-51.39,14.42-58.26,35.88
	c-6.27,19.58-8.56,73.3-9.11,89.3c-0.52,15.11,11.63,28.45,29.1,31.95c1.79,0.36,18.13,3.51,38.77,3.51
	c14.44,0,27.86-1.53,39.9-4.55c16.06-4.03,27.07-16.45,27.07-30.56c0-4,0.01-7.97,0.03-11.89
	C200.97,265.3,200.65,240.56,192.91,223.11z M162.92,316.12c-9.71,2.44-19.93,3.22-29.09,3.22c-16.78,0-29.99-2.65-29.99-2.65
	s2.22-64.44,7.82-81.93c2.72-8.49,12.05-12.29,21.68-12.29c10.21,0,20.75,4.28,24.08,11.79
	C163.89,248.86,162.92,281.62,162.92,316.12z"/>
<path class="st2" d="M162.98,294.93c-0.01,6.89-0.05,13.99-0.05,21.18c-27.52,6.9-59.08,0.58-59.08,0.58s0.32-9.33,1.02-21.84
	C120.89,295.92,141.22,296.44,162.98,294.93z"/>
</svg>
