<?xml version="1.0" encoding="utf-8"?>
<!-- Generator: Adobe Illustrator 25.0.1, SVG Export Plug-In . SVG Version: 6.00 Build 0)  -->
<svg version="1.1" id="Layer_1" xmlns="http://www.w3.org/2000/svg" xmlns:xlink="http://www.w3.org/1999/xlink" x="0px" y="0px"
	 viewBox="0 0 512 512" style="enable-background:new 0 0 512 512;" xml:space="preserve">
<style type="text/css">
	.st0{fill:#C99E5E;}
	.st1{fill:#181615;}
	.st2{fill:#403A38;}
	.st3{fill:#4D4743;}
	.st4{opacity:0.25;}
	.st5{fill:#C8CFDE;}
</style>
<g>
	<path class="st0" d="M483.91,338.89c-12.57,13.74-35.32,19.86-39.75,20.95c-21.28,5.23-29.44,1.69-32.12,0.54
		c-13.17-5.72-27.65-25.67-30.28-37.99c-2.79-13.14,6.18-24.82,13.18-32.46c1.59-1.74,3.33-3.53,5.32-5.47
		c7.42-7.25,30.96-21.09,45.6-21.06c12.94,0.04,25.35,8.73,30.65,13.87c6.11,5.92,6.6,14.04,6.99,20.57
		c0.03,0.63,0.08,1.41,0.14,2.12c3.11,3.45,8.4,9.9,8.5,19.31C492.2,326.14,489.36,332.93,483.91,338.89L483.91,338.89z"/>
	<path class="st1" d="M445.7,249.47c-21.75-0.05-48.93,17.89-56.6,25.38c-2.18,2.13-4.11,4.11-5.88,6.05
		c-5.16,5.64-20.88,22.82-16.39,43.95c3.47,16.29,20.27,40.03,38.83,48.09c3.97,1.72,15.95,6.9,42.62,0.35
		c7.3-1.79,32.28-8.91,47.34-25.37c7.77-8.5,11.83-18.39,11.71-28.6c-0.11-10.86-4.85-19.09-8.8-24.27
		c-0.52-7.49-1.98-18.49-11.06-27.28C478.4,258.96,462.64,249.52,445.7,249.47z M465.51,286.75c3.51,3.4,2.23,13.83,3.6,18.32
		c0.77,2.53,7.73,6.59,7.81,14.14c0.04,3.86-1.78,7.43-4.73,10.66c-7.49,8.19-22.26,14.09-32.16,16.52
		c-5.23,1.28-16.71,3.55-21.65,1.42c-8.44-3.66-19.92-19.54-21.7-27.91c-1.39-6.54,3.75-14.15,9.96-20.95
		c1.55-1.7,3.17-3.34,4.77-4.9c6.21-6.06,26.04-16.75,34.6-16.73C452.53,277.34,461.01,282.38,465.51,286.75z"/>
</g>
<g>
	<path class="st0" d="M445.03,266.46c-30.51,25.6-63.89,33.12-65.3,33.43c-9.35,2.04-18.74-3.29-21.76-12.37
		c0,0-14.5-43.54-18.71-56.35c-3.21-9.75-11.74-35.67,11.27-54.97c0.41-0.34,0.83-0.69,1.26-1.03c8.58-6.77,31.66-19.21,60.72,11.16
		l8.44,8.79c11.83,12.3,25.24,26.24,34.59,36.97c6.46,7.41,6.09,18.57-0.87,25.53C451.64,260.67,448.39,263.64,445.03,266.46
		C445.03,266.46,445.03,266.46,445.03,266.46z"/>
	<path class="st1" d="M434.45,182.14c-2.9-3.01-5.73-5.95-8.41-8.76c-32.41-33.87-65.59-28.88-85.83-12.92
		c-0.59,0.46-1.15,0.92-1.7,1.39c-13.35,11.21-21,25.97-22.11,42.69c-0.83,12.47,2.11,23.41,5.09,32.48
		c4.21,12.81,18.73,56.4,18.73,56.4c6.05,18.16,24.82,28.84,43.52,24.75c3.98-0.87,39.9-9.33,73.33-37.38
		c3.78-3.17,7.43-6.52,10.86-9.95c13.91-13.92,14.66-36.23,1.73-51.07C460,208.71,446.43,194.6,434.45,182.14z M433,252.12
		c-27.33,22.94-57.26,29.48-57.26,29.48s-14.48-43.49-18.69-56.28c-4.12-12.52-6.52-24.68,5.52-34.79c0.27-0.22,0.54-0.45,0.82-0.67
		c12.96-10.22,26.26-0.35,35.6,9.4c13.72,14.33,31.17,32.19,42.45,45.12C438.68,247.15,435.85,249.72,433,252.12z"/>
	<path class="st2" d="M445.03,266.46c-30.51,25.6-63.89,33.12-65.3,33.43c-9.35,2.04-18.74-3.29-21.76-12.37l-5.78-17.37
		c-2.48-7.45-0.01-15.43,5.73-20.25c1.4-1.18,2.99-2.16,4.76-2.91c24.95-10.53,42.96-23.09,53.67-31.77
		c7.63-6.18,18.74-5.42,25.45,1.75c5.8,6.19,10.17,10.99,13.75,15.11c6.46,7.41,6.08,18.57-0.87,25.53
		C451.64,260.67,448.39,263.64,445.03,266.46C445.03,266.46,445.03,266.46,445.03,266.46z"/>
	<path class="st1" d="M455.46,204.19c-13.42-14.33-35.64-15.87-50.9-3.5c-9.77,7.92-26.23,19.39-49.16,29.07
		c-3.53,1.49-6.72,3.46-9.52,5.81c-11.48,9.63-16.41,25.58-11.45,40.49l5.78,17.39c6.05,18.16,24.82,28.83,43.52,24.74
		c3.98-0.87,39.9-9.33,73.33-37.38c3.78-3.17,7.43-6.52,10.86-9.95c13.91-13.92,14.66-36.23,1.73-51.06
		C465.93,215.5,461.42,210.55,455.46,204.19z M433,252.12c-27.33,22.94-57.26,29.48-57.26,29.48s-2.53-7.59-5.78-17.36
		c27.13-11.45,46.77-25.23,58.17-34.47c4.88,5.21,9.47,10.21,13.31,14.61C438.68,247.15,435.85,249.72,433,252.12z"/>
</g>
<g>
	<path class="st0" d="M262.88,423.65c-80.23,0-142.04-8.95-144.63-9.33c-11.71-1.72-20.31-11.88-20.08-23.71
		c0.12-6.06,3.33-149.54,41.03-248.9c1.57-4.14,4.28-7.76,7.82-10.42c25.6-19.32,66.18-22.2,88.09-22.2
		c40.81,0,82.39,9.41,114.1,25.83c4.92,2.55,8.78,6.76,10.91,11.88c39.95,96.45,52.42,224.05,53.06,243.52
		c0.39,11.85-8.11,22.13-19.82,23.98C354.1,420.5,310.2,423.65,262.88,423.65z"/>
	<path class="st1" d="M381.83,137.81c-4.24-10.24-11.97-18.66-21.81-23.75c-34.94-18.09-80.46-28.46-124.9-28.46v47l0-47h-0.01
		c-24.85,0-71.18,3.5-102.25,26.94c-7.07,5.34-12.49,12.56-15.64,20.85C78.11,236.5,74.8,383.92,74.68,390.15
		c-0.46,23.66,16.74,43.97,40.15,47.42c2.66,0.39,66.12,9.58,148.05,9.58c48.54,0,93.68-3.25,134.15-9.65
		c23.41-3.7,40.4-24.26,39.63-47.95C436.01,369.42,423.11,237.47,381.83,137.81z M262.88,400.15c-79.44,0-141.22-9.08-141.22-9.08
		s2.82-144.33,39.51-241.02c15.04-11.35,42.74-17.46,73.94-17.46c34.23,0,72.69,7.35,103.3,23.2
		c38.43,92.79,50.69,217.31,51.28,235.29C346.69,397.88,302.57,400.15,262.88,400.15z"/>
	<path class="st3" d="M263.97,452.44c-88.67,0-156.96-9.88-159.82-10.3c-11.71-1.72-20.32-11.89-20.08-23.73
		c0.01-0.48,0.25-12.13,1.37-31.08c0.38-6.5,3.44-12.54,8.44-16.7c4.24-3.52,9.56-5.42,15.02-5.42c0.98,0,1.96,0.06,2.95,0.18
		c49.11,6.21,99.45,9.35,149.63,9.35c60.68,0,108.21-4.53,137.39-8.32c1.01-0.13,2.02-0.2,3.03-0.2c5.23,0,10.35,1.75,14.51,5.01
		c4.96,3.9,8.15,9.62,8.85,15.89c1.45,13.03,2.47,24.91,2.67,31c0.39,11.85-8.11,22.13-19.82,23.98
		C364.75,448.97,316.25,452.44,263.97,452.44C263.98,452.44,263.98,452.44,263.97,452.44z"/>
	<path class="st1" d="M448.61,384.53c-1.39-12.54-7.77-23.99-17.7-31.78c-8.32-6.53-18.55-10.03-29.02-10.03
		c-2.02,0-4.04,0.13-6.06,0.39c-28.5,3.7-74.94,8.12-134.36,8.12c-49.21,0-98.56-3.08-146.69-9.17c-1.96-0.25-3.93-0.37-5.89-0.37
		c-10.91,0-21.55,3.8-30.03,10.85c-10.01,8.32-16.12,20.41-16.88,33.4c-1.14,19.4-1.39,31.48-1.4,31.99
		c-0.48,23.67,16.73,44.01,40.16,47.45c2.93,0.43,72.87,10.55,163.24,10.55c53.51,0,103.24-3.57,147.8-10.62
		c23.41-3.7,40.4-24.26,39.63-47.95C451.19,410.61,450.14,398.33,448.61,384.53z M263.97,428.94c-87.98,0-156.41-10.05-156.41-10.05
		s0.23-11.46,1.33-30.19c56.05,7.08,107.78,9.54,152.58,9.54c62.97,0,112.23-4.85,140.42-8.52c1.6,14.44,2.39,24.74,2.54,29.18
		C356.8,426.43,307.95,428.94,263.97,428.94z"/>
	<path class="st4" d="M226.34,132.72c-17.47,100.7-20.03,202.44-19.43,265.97c-50.78-2.56-85.25-7.62-85.25-7.62
		s2.82-144.33,39.51-241.02C174.85,139.72,198.88,133.76,226.34,132.72z"/>
	<path class="st5" d="M328.49,475.99c-30.76,0-54.86-29.5-54.86-67.17c0-37.66,24.1-67.16,54.86-67.16
		c30.76,0,54.86,29.5,54.86,67.16C383.35,446.49,359.25,475.99,328.49,475.99z"/>
	<path class="st1" d="M328.49,322.86c-41.3,0-73.66,37.76-73.66,85.96c0,48.2,32.36,85.97,73.66,85.97
		c41.3,0,73.66-37.76,73.66-85.97C402.15,360.62,369.79,322.86,328.49,322.86z M328.49,457.19c-19.92,0-36.06-21.65-36.06-48.37
		c0-26.71,16.15-48.37,36.06-48.37c19.91,0,36.06,21.65,36.06,48.37C364.55,435.54,348.4,457.19,328.49,457.19z"/>
	<path d="M219.17,306.47c-0.5,9.5-6.34,16.93-13.03,16.57c-6.7-0.35-11.72-8.34-11.22-17.85c0.5-9.5,6.34-16.92,13.03-16.57
		C214.65,288.98,219.67,296.97,219.17,306.47z"/>
	<path d="M220.1,254.2c-0.62,7.23-6.16,12.65-12.37,12.12c-6.21-0.53-10.75-6.82-10.13-14.04c0.62-7.22,6.16-12.65,12.37-12.12
		C216.18,240.7,220.72,246.98,220.1,254.2z"/>
	<path class="st4" d="M205.37,396.96c-30.19-1.38-62.54-3.97-96.48-8.25c-1.1,18.73-1.33,30.19-1.33,30.19s43.97,6.45,106.7,9.02
		L205.37,396.96z"/>
</g>
<g>
	<path class="st0" d="M74.64,361.66c-19.01-3.2-35.99-18.49-39.21-21.53c-15.42-14.55-16.18-22.93-16.43-25.68
		c-1.21-13.53,10.17-35.32,20.33-43.68c10.84-8.9,26.16-7.56,36.74-5.77c2.41,0.41,4.94,0.91,7.73,1.53
		c10.43,2.33,34.98,14.35,42.21,26.19c6.38,10.48,4.45,24.9,2.3,31.78c-2.48,7.94-9.79,12.44-15.67,16.05
		c-0.57,0.35-1.27,0.78-1.91,1.18c-1.67,4.26-5.04,11.79-13.76,16.63C90.62,361.92,82.89,363.05,74.64,361.66L74.64,361.66z"/>
	<path class="st1" d="M138.89,285.56c-10.74-17.6-40.91-30.48-51.69-32.89c-3.07-0.69-5.86-1.24-8.54-1.69
		c-7.81-1.32-31.59-5.32-49.02,8.98c-13.43,11.05-27.19,36.63-25.48,55.7c0.37,4.07,1.49,16.38,20.81,34.62
		c5.28,4.99,24.3,21.58,47.09,25.42c11.76,1.98,22.97,0.25,32.42-5c10.05-5.59,15.35-13.57,18.22-19.38
		c6.71-4.21,16.22-10.96,19.9-22.73C146.28,316.78,147.25,299.28,138.89,285.56z M114.03,320.43c-1.42,4.56-11.76,8.8-15.26,12.17
		c-1.97,1.9-2.29,9.58-9.28,13.47c-3.57,1.99-7.8,2.32-12.26,1.57C65.9,345.72,53.08,336.78,45.91,330
		c-3.79-3.57-11.59-11.7-12.05-16.77c-0.78-8.67,8.3-25.98,15.2-31.65c5.39-4.43,15.03-4.13,24.43-2.54
		c2.35,0.4,4.68,0.87,6.93,1.37c8.72,1.95,28.5,12.57,32.72,19.5C116.35,305.18,115.86,314.58,114.03,320.43z"/>
</g>
<g>
	<path class="st0" d="M100.89,292.06c-37.96-13.55-61.49-38.56-62.47-39.62c-6.54-7.04-6.61-17.78-0.17-24.9
		c0,0,30.89-34.14,40-44.15c6.94-7.61,25.37-27.85,54-17.63c0.51,0.18,1.02,0.37,1.54,0.57c10.29,4.03,32.93,17.72,20.99,57.86
		l-3.44,11.64c-4.8,16.31-10.25,34.79-14.93,48.19c-3.23,9.26-13.22,14.48-22.86,11.95C109.33,294.87,105.07,293.55,100.89,292.06
		C100.89,292.06,100.89,292.06,100.89,292.06z"/>
	<path class="st1" d="M169.58,241.01c1.18-4,2.32-7.9,3.43-11.6c13.31-44.77-7.89-70.87-32.18-80.37c-0.7-0.27-1.4-0.53-2.08-0.78
		c-16.61-5.93-33.46-5.18-48.71,2.18c-11.37,5.49-19.49,13.46-25.94,20.54c-9.12,10-40.04,44.19-40.04,44.19
		c-12.89,14.24-12.74,35.73,0.33,49.8c2.79,3,28.43,29.73,70.01,44.58c4.7,1.68,9.49,3.16,14.25,4.41
		c19.28,5.06,39.26-5.39,45.73-23.91C159.2,276.24,164.72,257.52,169.58,241.01z M107.38,274.56c-34-12.14-54.93-34.67-54.93-34.67
		s30.85-34.1,39.95-44.09c8.9-9.78,18.37-17.89,33.35-12.55c0.33,0.12,0.67,0.24,1.01,0.37c15.55,6.08,13.63,22.45,9.79,35.35
		c-5.63,18.95-12.46,42.86-18.1,59.01C114.63,276.99,110.94,275.83,107.38,274.56z"/>
	<path class="st2" d="M100.89,292.06c-37.96-13.55-61.49-38.56-62.47-39.62c-6.54-7.04-6.61-17.78-0.17-24.9l12.33-13.62
		c5.29-5.84,13.55-7.69,20.68-5.14c1.74,0.62,3.41,1.51,4.97,2.65c21.9,16.26,42.06,25.52,55.11,30.44
		c9.3,3.5,14.26,13.45,11.37,22.79c-2.5,8.08-4.5,14.22-6.29,19.36c-3.23,9.26-13.22,14.48-22.86,11.95
		C109.33,294.87,105.07,293.55,100.89,292.06C100.89,292.06,100.89,292.06,100.89,292.06z"/>
	<path class="st1" d="M160.87,270.08c5.78-18.69-4.14-38.59-22.73-45.59c-11.91-4.48-30.33-12.96-50.46-27.89
		c-3.1-2.3-6.45-4.07-9.93-5.31c-14.28-5.1-30.79-1.41-41.37,10.27l-12.34,13.63c-12.88,14.24-12.73,35.72,0.34,49.8
		c2.79,3,28.43,29.73,70.01,44.58c4.7,1.68,9.49,3.16,14.25,4.41c19.28,5.06,39.25-5.39,45.72-23.9
		C156.24,284.72,158.31,278.37,160.87,270.08z M107.38,274.56c-34-12.14-54.93-34.67-54.93-34.67s5.39-5.96,12.32-13.61
		c23.82,17.68,45.87,27.74,59.77,32.97c-2.1,6.8-4.16,13.23-6.09,18.73C114.63,276.99,110.93,275.83,107.38,274.56z"/>
</g>
</svg>
